<svg xmlns="http://www.w3.org/2000/svg" viewBox="0 0 64 64">
  <rect width="64" height="64" rx="32" fill="#0b2427"/>
  <path d="M15 24c4.2 0 4.2 3 8.4 3s4.2-3 8.4-3 4.2 3 8.4 3 4.2-3 8.4-3" fill="none" stroke="#7dd3c7" stroke-width="3" stroke-linecap="round"/>
  <path d="M15 33c4.2 0 4.2 3 8.4 3s4.2-3 8.4-3 4.2 3 8.4 3 4.2-3 8.4-3" fill="none" stroke="#dff3ee" stroke-width="3" stroke-linecap="round"/>
  <path d="M15 42c4.2 0 4.2 3 8.4 3s4.2-3 8.4-3 4.2 3 8.4 3 4.2-3 8.4-3" fill="none" stroke="#7dd3c7" stroke-width="3" stroke-linecap="round" opacity=".72"/>
</svg>
